<?xml version="1.0" encoding="UTF-8" standalone="no"?>
<!-- Uploaded to: SVG Repo, www.svgrepo.com, Generator: SVG Repo Mixer Tools -->

<svg
   fill="#000000"
   height="800px"
   width="800px"
   version="1.1"
   id="Capa_1"
   viewBox="0 0 490 490"
   xml:space="preserve"
   sodipodi:docname="clock.svg"
   inkscape:version="1.4 (86a8ad7, 2024-10-11)"
   xmlns:inkscape="http://www.inkscape.org/namespaces/inkscape"
   xmlns:sodipodi="http://sodipodi.sourceforge.net/DTD/sodipodi-0.dtd"
   xmlns="http://www.w3.org/2000/svg"
   xmlns:svg="http://www.w3.org/2000/svg"><defs
   id="defs3" /><sodipodi:namedview
   id="namedview3"
   pagecolor="#ffffff"
   bordercolor="#000000"
   borderopacity="0.25"
   inkscape:showpageshadow="2"
   inkscape:pageopacity="0.0"
   inkscape:pagecheckerboard="0"
   inkscape:deskcolor="#d1d1d1"
   inkscape:zoom="0.67875"
   inkscape:cx="400"
   inkscape:cy="400"
   inkscape:window-width="1366"
   inkscape:window-height="697"
   inkscape:window-x="-8"
   inkscape:window-y="-8"
   inkscape:window-maximized="1"
   inkscape:current-layer="Capa_1" />
<g
   id="g3"
   style="fill:#ffffff;fill-opacity:1">
	<g
   id="g2"
   style="fill:#ffffff;fill-opacity:1">
		<path
   d="M245,0C109.5,0,0,109.5,0,245s109.5,245,245,245s245-109.5,245-245S380.5,0,245,0z M245,449.3    c-112.6,0-204.3-91.7-204.3-204.3S132.4,40.7,245,40.7S449.3,132.4,449.3,245S357.6,449.3,245,449.3z"
   id="path1"
   style="fill:#ffffff;fill-opacity:1" />
		<path
   d="M290.9,224.1h-25v-95.9c0-11.5-9.4-20.9-20.9-20.9s-20.9,9.4-20.9,20.9V245c0,11.5,9.4,20.9,20.9,20.9h45.9    c11.5,0,20.9-9.4,20.9-20.9S302.3,224.1,290.9,224.1z"
   id="path2"
   style="fill:#ffffff;fill-opacity:1" />
	</g>
</g>
</svg>
