<?xml version="1.0" encoding="UTF-8" standalone="no"?>
<svg
   width="106.40664"
   height="106.39244"
   viewBox="0 0 39.90249 39.897165"
   version="1.1"
   id="svg2"
   sodipodi:docname="connect.svg"
   inkscape:version="1.4 (86a8ad7, 2024-10-11)"
   xmlns:inkscape="http://www.inkscape.org/namespaces/inkscape"
   xmlns:sodipodi="http://sodipodi.sourceforge.net/DTD/sodipodi-0.dtd"
   xmlns="http://www.w3.org/2000/svg"
   xmlns:svg="http://www.w3.org/2000/svg">
  <defs
     id="defs2" />
  <sodipodi:namedview
     id="namedview2"
     pagecolor="#ffffff"
     bordercolor="#000000"
     borderopacity="0.25"
     inkscape:showpageshadow="2"
     inkscape:pageopacity="0.0"
     inkscape:pagecheckerboard="0"
     inkscape:deskcolor="#d1d1d1"
     inkscape:zoom="3.1764563"
     inkscape:cx="-6.6111408"
     inkscape:cy="31.324215"
     inkscape:window-width="1440"
     inkscape:window-height="829"
     inkscape:window-x="-8"
     inkscape:window-y="-8"
     inkscape:window-maximized="1"
     inkscape:current-layer="svg2" />
  <path
     style="fill:#ffffff;stroke-width:0.375;stroke-linecap:round;stroke-linejoin:round"
     d="M 29.671185,22.821089 C 29.281256,22.703531 28.848573,22.290596 23.095128,16.545165 18.743533,12.19963 16.885259,10.289614 16.761953,10.035647 16.554654,9.6086828 16.57299,8.9048018 16.803933,8.4240923 17.018235,7.9780234 20.773638,4.2925875 21.532054,3.784062 22.690302,3.0074457 23.8385,2.51445 25.218652,2.2011683 c 0.847202,-0.1923071 3.049168,-0.1923071 3.89637,0 1.309442,0.2972314 2.603092,0.8406877 3.597698,1.5113771 l 0.45371,0.3059479 1.883682,-1.879956 c 1.222883,-1.22046639 1.992555,-1.92495489 2.194043,-2.00822964 0.697582,-0.28831163 1.513522,-0.08927925 2.085562,0.5087325 0.58977,0.61654574 0.738004,1.43949604 0.379729,2.10814274 -0.103305,0.1927961 -1.004059,1.1903246 -2.001675,2.2167304 l -1.813845,1.866192 0.410576,0.7807474 c 2.026785,3.8541243 1.401375,8.5498523 -1.551217,11.6468523 -0.269936,0.28314 -1.173285,1.172945 -2.007437,1.977344 -1.348604,1.300501 -1.565322,1.477 -1.956021,1.593026 -0.523843,0.155564 -0.580659,0.155209 -1.118642,-0.007 z"
     id="path3" />
  <path
     style="fill:#ffffff;stroke-width:0.375;stroke-linecap:round;stroke-linejoin:round"
     d="M 1.2050978,39.745805 C 0.78962558,39.552733 0.29452133,39.043715 0.12395633,38.634283 -0.04093305,38.238474 -0.04136542,37.649057 0.12294383,37.251527 0.20598195,37.05062 0.89789445,36.293173 2.0848572,35.103789 L 3.9184925,33.266411 3.6135522,32.813601 C 1.5150455,29.697498 1.6092241,25.422108 3.8485381,22.146016 4.4279648,21.29832 8.1467825,17.518215 8.632742,17.282966 c 0.4440742,-0.214973 1.1378861,-0.218536 1.58801,-0.0082 0.183652,0.08584 0.671217,0.498228 1.083477,0.916427 0.41226,0.4182 0.786085,0.760363 0.830722,0.760363 0.04464,0 0.890637,-0.801546 1.880001,-1.781214 1.60222,-1.586516 1.842316,-1.793043 2.196559,-1.889443 1.175216,-0.319814 2.36529,0.507944 2.465371,1.71479 0.06723,0.81068 -0.047,0.978377 -1.985615,2.915121 -0.964696,0.963764 -1.753993,1.79057 -1.753993,1.837346 0,0.110021 3.105385,3.213834 3.215461,3.213834 0.04588,0 0.871955,-0.789297 1.835719,-1.753993 1.936745,-1.938617 2.104441,-2.052843 2.915121,-1.985615 1.206846,0.100081 2.034604,1.290156 1.714791,2.465371 -0.0964,0.354243 -0.302928,0.59434 -1.889444,2.196559 -0.979667,0.989365 -1.781213,1.832743 -1.781213,1.874176 0,0.04143 0.447039,0.527952 0.993421,1.081156 0.820387,0.83063 1.01091,1.071106 1.093823,1.380613 0.12831,0.478976 0.05312,1.02234 -0.201325,1.454974 -0.341806,0.581164 -3.914501,4.038774 -4.733908,4.581418 -3.338388,2.210812 -7.598481,2.31768 -10.879174,0.272914 -0.3366379,-0.209817 -0.6434025,-0.381484 -0.6816998,-0.381484 -0.038297,0 -0.8596222,0.78687 -1.825167,1.748599 -1.1176834,1.113266 -1.8683021,1.795706 -2.0658979,1.878258 -0.4151261,0.17343 -1.0336091,0.160924 -1.4426812,-0.02918 z"
     id="path4" />
</svg>
