<?xml version="1.0" encoding="UTF-8" standalone="no"?>
<svg
   width="90.338814"
   height="88.738129"
   viewBox="0 0 33.877055 33.276798"
   version="1.1"
   id="svg2"
   xmlns="http://www.w3.org/2000/svg"
   xmlns:svg="http://www.w3.org/2000/svg">
  <defs
     id="defs2" />
  <path
     style="fill:#ffffff;stroke-width:0.375;stroke-linecap:round;stroke-linejoin:round"
     d="M 23.64575,22.821089 C 23.255821,22.703531 22.823138,22.290596 17.069693,16.545165 12.718098,12.19963 10.859824,10.289614 10.736518,10.035647 10.529219,9.6086828 10.547555,8.9048018 10.778498,8.4240923 10.9928,7.9780234 14.748203,4.2925875 15.506619,3.784062 16.664867,3.0074457 17.813065,2.51445 19.193217,2.2011683 c 0.847202,-0.1923071 3.049168,-0.1923071 3.89637,0 1.309442,0.2972314 2.603092,0.8406877 3.597698,1.5113771 l 0.45371,0.3059479 1.883682,-1.879956 c 1.222883,-1.22046639 1.992555,-1.92495489 2.194043,-2.00822964 0.697582,-0.28831163 1.513522,-0.08927925 2.085562,0.5087325 0.58977,0.61654574 0.738004,1.43949604 0.379729,2.10814274 -0.103305,0.1927961 -1.004059,1.1903246 -2.001675,2.2167304 l -1.813845,1.866192 0.410576,0.7807474 c 2.026785,3.8541243 1.401375,8.5498523 -1.551217,11.6468523 -0.269936,0.28314 -1.173285,1.172945 -2.007437,1.977344 -1.348604,1.300501 -1.565322,1.477 -1.956021,1.593026 -0.523843,0.155564 -0.580659,0.155209 -1.118642,-0.007 z"
     id="path3" />
  <path
     style="fill:#ffffff;stroke-width:0.375;stroke-linecap:round;stroke-linejoin:round"
     d="m 10.231304,10.45571 c 0.389929,0.117558 0.822612,0.530493 6.576057,6.275924 4.351595,4.345535 6.209869,6.255551 6.333175,6.509518 0.207299,0.426964 0.188963,1.130845 -0.04198,1.611555 -0.214302,0.446069 -3.969705,4.131504 -4.728121,4.64003 -1.158248,0.776616 -2.306446,1.269612 -3.686598,1.582894 -0.847202,0.192307 -3.049168,0.192307 -3.89637,0 C 9.4780254,30.778399 8.1843754,30.234943 7.1897694,29.564254 l -0.45371,-0.305948 -1.883682,1.879956 c -1.2228825,1.220466 -1.9925545,1.924955 -2.1940425,2.008229 -0.697582,0.288312 -1.513522,0.08928 -2.08556195,-0.508732 -0.58977,-0.616546 -0.738004,-1.439496 -0.379729,-2.108143 0.103305,-0.192796 1.00405895,-1.190324 2.00167495,-2.21673 L 4.0085634,26.446694 3.5979879,25.665946 c -2.026785,-3.854124 -1.401375,-8.549852 1.5512165,-11.646852 0.269936,-0.28314 1.173285,-1.172945 2.007437,-1.977344 1.348604,-1.300501 1.565322,-1.477 1.956021,-1.593026 0.523843,-0.155564 0.580659,-0.155209 1.1186416,0.007 z"
     id="path3-9" />
</svg>
