<?xml version="1.0" encoding="UTF-8" standalone="no"?>
<svg
   version="1.1"
   id="Layer_1"
   x="0px"
   y="0px"
   viewBox="0 0 104.23 122.88"
   style="enable-background:new 0 0 104.23 122.88"
   xml:space="preserve"
   sodipodi:docname="music-icon.svg"
   inkscape:version="1.4 (86a8ad7, 2024-10-11)"
   xmlns:inkscape="http://www.inkscape.org/namespaces/inkscape"
   xmlns:sodipodi="http://sodipodi.sourceforge.net/DTD/sodipodi-0.dtd"
   xmlns="http://www.w3.org/2000/svg"
   xmlns:svg="http://www.w3.org/2000/svg"><defs
     id="defs1" /><sodipodi:namedview
     id="namedview1"
     pagecolor="#ffffff"
     bordercolor="#000000"
     borderopacity="0.25"
     inkscape:showpageshadow="2"
     inkscape:pageopacity="0.0"
     inkscape:pagecheckerboard="0"
     inkscape:deskcolor="#d1d1d1"
     inkscape:zoom="2.3803711"
     inkscape:cx="4.6211281"
     inkscape:cy="82.550152"
     inkscape:window-width="1440"
     inkscape:window-height="829"
     inkscape:window-x="-8"
     inkscape:window-y="-8"
     inkscape:window-maximized="1"
     inkscape:current-layer="Layer_1" /><style
     type="text/css"
     id="style1">.st0{fill-rule:evenodd;clip-rule:evenodd;}</style><path
     class="st0"
     d="m 87.9,78.04 c 2.74,-0.48 5.33,-0.4 7.6,0.13 V 24.82 L 39.05,41.03 v 61.95 c 0.03,0.34 0.05,0.69 0.05,1.03 0,0 0,0.01 0,0.01 0,8.34 -8.75,16.62 -19.55,18.49 C 8.76,124.37 0,119.12 0,110.77 0,102.43 8.76,94.15 19.55,92.29 23.61,91.59 27.39,91.9 30.52,93 V 16.74 h 0.47 L 104.04,0 v 85.92 c 0.13,0.63 0.2,1.27 0.2,1.91 0,0 0,0 0,0.01 0,6.97 -7.32,13.89 -16.33,15.44 -9.02,1.56 -16.33,-2.83 -16.33,-9.8 -0.01,-6.97 7.3,-13.89 16.32,-15.44 z"
     id="path1"
     style="fill:#ffffff;fill-opacity:1" /></svg>
